<svg id="Group_9704" data-name="Group 9704" xmlns="http://www.w3.org/2000/svg" width="72" height="72" viewBox="0 0 72 72">
  <g id="Group_9700" data-name="Group 9700">
    <rect id="Rectangle_2512" data-name="Rectangle 2512" width="72" height="72" rx="4" fill="#fff9f4"/>
  </g>
  <g id="freepik--Shadow--inject-603" transform="translate(6.615 62.213)">
    <ellipse id="Ellipse_1185" data-name="Ellipse 1185" cx="29.725" cy="2.894" rx="29.725" ry="2.894" transform="translate(0)" fill="#ebebeb"/>
  </g>
  <g id="freepik--speech-bubble--inject-101" transform="translate(-173.122 -82.421)">
    <path id="Path_27967" data-name="Path 27967" d="M324.617,164.29H299.665A3.665,3.665,0,0,0,296,167.943v13.5a3.665,3.665,0,0,0,3.656,3.653h2.526l-.974,3.977a10.552,10.552,0,0,0,7.324-3.971h16.084a3.665,3.665,0,0,0,3.656-3.653v-13.51A3.665,3.665,0,0,0,324.617,164.29Z" transform="translate(-88.558 -49.228)" fill="#ff7500"/>
    <path id="Path_27968" data-name="Path 27968" d="M324.617,164.29H299.665A3.665,3.665,0,0,0,296,167.943v13.5a3.665,3.665,0,0,0,3.656,3.653h2.526l-.974,3.977a10.552,10.552,0,0,0,7.324-3.971h16.084a3.665,3.665,0,0,0,3.656-3.653v-13.51A3.665,3.665,0,0,0,324.617,164.29Z" transform="translate(-88.558 -49.228)" opacity="0.3"/>
    <circle id="Ellipse_1382" data-name="Ellipse 1382" cx="3.087" cy="3.087" r="3.087" transform="translate(230.032 122.38)" fill="#ff7500"/>
    <circle id="Ellipse_1383" data-name="Ellipse 1383" cx="3.087" cy="3.087" r="3.087" transform="translate(220.497 122.38)" fill="#ff7500"/>
    <circle id="Ellipse_1384" data-name="Ellipse 1384" cx="3.087" cy="3.087" r="3.087" transform="translate(210.964 122.38)" fill="#ff7500"/>
    <g id="Group_10075" data-name="Group 10075" transform="translate(210.964 122.38)" opacity="0.1">
      <circle id="Ellipse_1385" data-name="Ellipse 1385" cx="3.087" cy="3.087" r="3.087" transform="translate(19.069)" fill="#fafafa"/>
      <circle id="Ellipse_1386" data-name="Ellipse 1386" cx="3.087" cy="3.087" r="3.087" transform="translate(9.533)" fill="#fafafa"/>
      <circle id="Ellipse_1387" data-name="Ellipse 1387" cx="3.087" cy="3.087" r="3.087" transform="translate(0)" fill="#fafafa"/>
    </g>
    <path id="Path_27969" data-name="Path 27969" d="M178.793,99.59h24.955a3.668,3.668,0,0,1,3.656,3.656v13.5a3.668,3.668,0,0,1-3.656,3.644h-2.526l.983,3.968a10.558,10.558,0,0,1-7.327-3.968H178.793a3.665,3.665,0,0,1-3.653-3.656V103.249a3.665,3.665,0,0,1,3.653-3.659Z" transform="translate(0 0)" fill="#ff7500"/>
    <path id="Path_27970" data-name="Path 27970" d="M178.793,99.59h24.955a3.668,3.668,0,0,1,3.656,3.656v13.5a3.668,3.668,0,0,1-3.656,3.644h-2.526l.983,3.968a10.558,10.558,0,0,1-7.327-3.968H178.793a3.665,3.665,0,0,1-3.653-3.656V103.249a3.665,3.665,0,0,1,3.653-3.659Z" transform="translate(0 0)" fill="#fafafa" opacity="0.1"/>
    <rect id="Rectangle_2904" data-name="Rectangle 2904" width="23.426" height="2.218" transform="translate(179.557 104.292)" fill="#ff7500"/>
    <rect id="Rectangle_2905" data-name="Rectangle 2905" width="18.068" height="2.218" transform="translate(179.557 108.886)" fill="#ff7500"/>
    <rect id="Rectangle_2906" data-name="Rectangle 2906" width="20.426" height="2.218" transform="translate(179.557 113.483)" fill="#ff7500"/>
    <g id="Group_10076" data-name="Group 10076" transform="translate(179.557 104.292)" opacity="0.3">
      <rect id="Rectangle_2907" data-name="Rectangle 2907" width="23.426" height="2.218" transform="translate(0)"/>
      <rect id="Rectangle_2908" data-name="Rectangle 2908" width="18.068" height="2.218" transform="translate(0 4.594)"/>
      <rect id="Rectangle_2909" data-name="Rectangle 2909" width="20.426" height="2.218" transform="translate(0 9.191)"/>
    </g>
  </g>
</svg>
