<svg xmlns="http://www.w3.org/2000/svg" width="72" height="72" viewBox="0 0 72 72">
  <g id="Group_9703" data-name="Group 9703" transform="translate(-3642 -2358)">
    <g id="Group_9700" data-name="Group 9700" transform="translate(3532 1173)">
      <rect id="Rectangle_2512" data-name="Rectangle 2512" width="72" height="72" rx="4" transform="translate(110 1185)" fill="#f7f4fd"/>
    </g>
    <g id="Questions-cuate" transform="translate(3605.097 2323.622)">
      <g id="freepik--background-complete--inject-603" transform="translate(39.252 35.328)">
        <rect id="Rectangle_2679" data-name="Rectangle 2679" width="27.457" height="1.205" transform="translate(29.585 15.222) rotate(180)" fill="#ebebeb"/>
        <rect id="Rectangle_2680" data-name="Rectangle 2680" width="1.205" height="3.983" transform="translate(26.84 15.224)" fill="#ebebeb"/>
        <rect id="Rectangle_2681" data-name="Rectangle 2681" width="1.205" height="1.231" transform="translate(26.84 15.224)" fill="#dbdbdb"/>
        <rect id="Rectangle_2682" data-name="Rectangle 2682" width="1.205" height="3.983" transform="translate(3.665 15.224)" fill="#ebebeb"/>
        <rect id="Rectangle_2683" data-name="Rectangle 2683" width="1.205" height="1.231" transform="translate(3.665 15.224)" fill="#dbdbdb"/>
        <rect id="Rectangle_2684" data-name="Rectangle 2684" width="7.674" height="1.933" transform="translate(24.458 6.346) rotate(90)" fill="#c7c7c7"/>
        <rect id="Rectangle_2685" data-name="Rectangle 2685" width="0.844" height="1.933" transform="translate(24.458 5.935) rotate(90)" fill="#dbdbdb"/>
        <rect id="Rectangle_2686" data-name="Rectangle 2686" width="0.313" height="1.933" transform="translate(24.458 7.858) rotate(90)" fill="#dbdbdb"/>
        <rect id="Rectangle_2687" data-name="Rectangle 2687" width="0.844" height="2.173" transform="translate(24.458 12.169) rotate(90)" fill="#dbdbdb"/>
        <rect id="Rectangle_2688" data-name="Rectangle 2688" width="8.953" height="1.351" transform="translate(22.526 5.067) rotate(90)" fill="#dbdbdb"/>
        <rect id="Rectangle_2689" data-name="Rectangle 2689" width="3.442" height="0.811" transform="translate(22.262 5.909) rotate(90)" fill="#ebebeb"/>
        <rect id="Rectangle_2690" data-name="Rectangle 2690" width="8.953" height="1.351" transform="matrix(-0.711, 0.703, -0.703, -0.711, 18.884, 7.729)" fill="#c7c7c7"/>
        <rect id="Rectangle_2691" data-name="Rectangle 2691" width="3.442" height="0.811" transform="matrix(-0.711, 0.703, -0.703, -0.711, 16.266, 9.93)" fill="#dbdbdb"/>
        <rect id="Rectangle_2692" data-name="Rectangle 2692" width="6.799" height="2.294" transform="translate(21.176 7.221) rotate(90)" fill="#a6a6a6"/>
        <rect id="Rectangle_2693" data-name="Rectangle 2693" width="0.634" height="2.294" transform="translate(21.176 12.667) rotate(90)" fill="#c7c7c7"/>
        <rect id="Rectangle_2694" data-name="Rectangle 2694" width="0.246" height="2.294" transform="translate(21.176 12.004) rotate(90)" fill="#c7c7c7"/>
        <rect id="Rectangle_2695" data-name="Rectangle 2695" width="6.39" height="1.584" transform="translate(26.044 7.631) rotate(90)" fill="#a6a6a6"/>
        <rect id="Rectangle_2696" data-name="Rectangle 2696" width="0.595" height="1.584" transform="translate(26.044 12.747) rotate(90)" fill="#c7c7c7"/>
        <rect id="Rectangle_2697" data-name="Rectangle 2697" width="0.595" height="1.584" transform="translate(26.044 8.948) rotate(90)" fill="#c7c7c7"/>
        <rect id="Rectangle_2698" data-name="Rectangle 2698" width="0.231" height="1.584" transform="translate(26.042 9.951) rotate(90)" fill="#c7c7c7"/>
        <path id="Path_21261" data-name="Path 21261" d="M89.535,71.47a5.868,5.868,0,0,1,1.294,5.164c0,.04-.071.03-.071-.01,0-.407.013-.812.012-1.214a.139.139,0,0,0-.021-.054,2.724,2.724,0,0,1-.878-.944A12.689,12.689,0,0,1,89.383,73c-.016-.045.031-.031.061-.008a3.381,3.381,0,0,1,1.318,2.131,7.323,7.323,0,0,0-.143-1.358A4.629,4.629,0,0,0,89.5,71.507a.026.026,0,0,1,.036-.036Z" transform="translate(-81.856 -65.637)" fill="#a6a6a6"/>
        <path id="Path_21262" data-name="Path 21262" d="M82.559,66.27c-.234,0-.379.379-.56.494a.175.175,0,0,1-.257-.041c-.18-.25.068-.559.3-.732a2.536,2.536,0,0,1-.481.208.165.165,0,0,1-.218-.13c-.079-.341.349-.494.644-.494-.143-.1-.552-.367-.33-.494s.7.252.855.379a1.209,1.209,0,0,1,.516.758C83.035,66.55,82.737,66.341,82.559,66.27Z" transform="translate(-75.134 -60.282)" fill="#dbdbdb"/>
        <path id="Path_21263" data-name="Path 21263" d="M84.31,67.873c-.3-.137-.868.059-.916-.054-.1-.229.358-.386.6-.417-.227-.061-.659-.165-.649-.377.016-.267.667-.038,1,.214.414.318.412.626.343.687C84.595,68.01,84.359,67.895,84.31,67.873Z" transform="translate(-76.819 -61.828)" fill="#ebebeb"/>
        <path id="Path_21264" data-name="Path 21264" d="M101.15,70.657a5.846,5.846,0,0,0-1.483,5.108c0,.041.069.033.071,0,.015-.407.018-.812.035-1.214L99.8,74.5a2.7,2.7,0,0,0,.913-.908,12.681,12.681,0,0,0,.54-1.389c.018-.045-.03-.033-.061-.012a3.4,3.4,0,0,0-1.4,2.08,7.3,7.3,0,0,1,.194-1.351,4.629,4.629,0,0,1,1.209-2.218.029.029,0,1,0-.041-.041Z" transform="translate(-90.393 -64.954)" fill="#a6a6a6"/>
        <path id="Path_21265" data-name="Path 21265" d="M108.162,65.607c.232.016.364.394.54.509a.175.175,0,0,0,.259-.031c.189-.244-.046-.562-.27-.743a2.608,2.608,0,0,0,.473.241.165.165,0,0,0,.222-.122c.091-.339-.33-.508-.625-.526.145-.094.564-.348.353-.494s-.705.229-.87.353a1.2,1.2,0,0,0-.542.737C107.675,65.869,107.98,65.671,108.162,65.607Z" transform="translate(-97.157 -59.741)" fill="#dbdbdb"/>
        <path id="Path_21266" data-name="Path 21266" d="M107.99,67.252c.3-.124.865.092.918-.018.107-.224-.343-.4-.587-.438.229-.053.659-.135.659-.354,0-.267-.659-.063-1,.178-.425.3-.435.608-.369.672C107.7,67.382,107.94,67.277,107.99,67.252Z" transform="translate(-97.055 -61.335)" fill="#ebebeb"/>
        <path id="Path_21267" data-name="Path 21267" d="M94.726,66.969a13.513,13.513,0,0,1-.435,2.009.05.05,0,1,1-.1-.02c.092-.62.26-1.228.351-1.846a9.254,9.254,0,0,0,.109-1.9A5.078,5.078,0,0,0,93.63,62.25c-.015-.02.016-.048.031-.03a5.261,5.261,0,0,1,1.153,3.714,4.052,4.052,0,0,1,1.122-2.083c.031-.03.056-.015.051.035A3.479,3.479,0,0,1,94.81,66.4C94.782,66.585,94.757,66.778,94.726,66.969Z" transform="translate(-85.403 -57.91)" fill="#a6a6a6"/>
        <path id="Path_21268" data-name="Path 21268" d="M87.612,54.946c-.246-.109-.583.2-.824.224a.2.2,0,0,1-.246-.165c-.061-.349.351-.547.677-.61a3.03,3.03,0,0,1-.611-.012.194.194,0,0,1-.165-.246c.091-.394.611-.33.921-.2-.1-.165-.387-.659-.1-.687s.6.613.7.824a1.385,1.385,0,0,1,.153,1.045C87.966,55.477,87.762,55.109,87.612,54.946Z" transform="translate(-79.397 -50.426)" fill="#dbdbdb"/>
        <path id="Path_21269" data-name="Path 21269" d="M89.134,56.82c-.241-.288-.931-.374-.924-.516.013-.287.565-.221.837-.129-.2-.178-.606-.494-.483-.718.152-.269.71.3.926.725.27.539.112.855.01.885C89.36,57.106,89.174,56.869,89.134,56.82Z" transform="translate(-80.879 -52.207)" fill="#ebebeb"/>
        <path id="Path_21270" data-name="Path 21270" d="M90.248,93.265l.6,4.594H87.19c.076-.407.756-4.6.756-4.6Z" transform="translate(-80.027 -83.839)" fill="#dbdbdb"/>
        <path id="Path_21271" data-name="Path 21271" d="M366.593,67.5a3.332,3.332,0,0,1,.534-1.175,2.067,2.067,0,0,1,1.163-.718c.165-.049.358-.1.59-.165a4.351,4.351,0,0,0,.7-.234,2.275,2.275,0,0,0,.628-.4,1.241,1.241,0,0,0,.377-.641,1.165,1.165,0,0,0,.018-.545,1.226,1.226,0,0,0-.2-.451,1.26,1.26,0,0,0-.369-.339,1.668,1.668,0,0,0-.478-.2,1.463,1.463,0,0,0-.593-.028,2,2,0,0,0-.521.152,2.261,2.261,0,0,0-.455.272,4.273,4.273,0,0,0-.371.316l-1.005-1.153a2.8,2.8,0,0,1,.676-.649,3.043,3.043,0,0,1,.824-.394,3.346,3.346,0,0,1,.919-.14,3.624,3.624,0,0,1,.954.114,3.8,3.8,0,0,1,1.01.417,2.745,2.745,0,0,1,.807.725,2.6,2.6,0,0,1,.455,1.03,2.874,2.874,0,0,1-.056,1.318,2.782,2.782,0,0,1-.3.765,2.273,2.273,0,0,1-.458.547,2.777,2.777,0,0,1-.588.387,5.371,5.371,0,0,1-.71.282c-.216.066-.428.125-.641.181a3.444,3.444,0,0,0-.6.214,1.714,1.714,0,0,0-.494.339,1.184,1.184,0,0,0-.3.557Zm-.793,3.268.486-1.931,1.554.391-.486,1.931Z" transform="translate(-312.727 -56.902)" fill="#ebebeb"/>
        <path id="Path_21272" data-name="Path 21272" d="M58.677,305.494a2.454,2.454,0,0,1,.026.951,1.559,1.559,0,0,1-.534.854c-.092.084-.206.183-.341.3a3.121,3.121,0,0,0-.387.381,1.664,1.664,0,0,0-.288.468.918.918,0,0,0-.043.547.883.883,0,0,0,.165.369.919.919,0,0,0,.277.236.941.941,0,0,0,.354.1,1.235,1.235,0,0,0,.382-.02,1.094,1.094,0,0,0,.4-.165,1.45,1.45,0,0,0,.3-.269,1.728,1.728,0,0,0,.214-.33,2.815,2.815,0,0,0,.143-.33l1.038.435a2.076,2.076,0,0,1-.241.649,2.215,2.215,0,0,1-.422.529,2.4,2.4,0,0,1-.565.391,2.7,2.7,0,0,1-.669.232,2.8,2.8,0,0,1-.8.051,2.029,2.029,0,0,1-.77-.219,1.938,1.938,0,0,1-.636-.537,2.127,2.127,0,0,1-.387-.891,2.017,2.017,0,0,1-.046-.6,1.648,1.648,0,0,1,.127-.511,1.949,1.949,0,0,1,.265-.447,3.793,3.793,0,0,1,.379-.419c.122-.112.244-.221.367-.33a2.61,2.61,0,0,0,.33-.33,1.242,1.242,0,0,0,.2-.384.865.865,0,0,0,.016-.466Zm-.531-2.424.3,1.438-1.153.242-.3-1.437Z" transform="translate(-53.839 -259.077)" fill="#ebebeb"/>
        <path id="Path_21273" data-name="Path 21273" d="M375.664,218.527a2.47,2.47,0,0,1,.42.854,1.561,1.561,0,0,1-.137,1c-.048.115-.11.252-.186.41a3,3,0,0,0-.195.508,1.662,1.662,0,0,0-.068.545.933.933,0,0,0,.188.516.865.865,0,0,0,.3.265.906.906,0,0,0,.351.1.916.916,0,0,0,.366-.051,1.277,1.277,0,0,0,.338-.178,1.069,1.069,0,0,0,.295-.316,1.426,1.426,0,0,0,.165-.369,1.8,1.8,0,0,0,.058-.387,3.134,3.134,0,0,0,0-.358l1.124-.036a2.037,2.037,0,0,1,.053.689,2.263,2.263,0,0,1-.165.659,2.45,2.45,0,0,1-.353.59,2.718,2.718,0,0,1-.511.494,2.792,2.792,0,0,1-.712.381,2.036,2.036,0,0,1-.791.12,1.953,1.953,0,0,1-.8-.222,2.142,2.142,0,0,1-.723-.651,2.025,2.025,0,0,1-.293-.531,1.631,1.631,0,0,1-.1-.517,1.967,1.967,0,0,1,.054-.517,3.966,3.966,0,0,1,.173-.537c.064-.153.129-.3.2-.45a2.471,2.471,0,0,0,.165-.44,1.273,1.273,0,0,0,.036-.437.867.867,0,0,0-.18-.43Zm-1.483-1.977.872,1.181-.951.7-.872-1.182Z" transform="translate(-318.933 -186.814)" fill="#ebebeb"/>
        <path id="Path_21274" data-name="Path 21274" d="M415.553,181.687a2.681,2.681,0,0,1,.188-1.03,1.7,1.7,0,0,1,.771-.8c.117-.071.262-.15.433-.241a3.391,3.391,0,0,0,.494-.321,1.776,1.776,0,0,0,.415-.438,1.008,1.008,0,0,0,.165-.58.953.953,0,0,0-.339-.748,1,1,0,0,0-.356-.193,1.383,1.383,0,0,0-.415-.064,1.222,1.222,0,0,0-.468.087,1.674,1.674,0,0,0-.381.222,1.845,1.845,0,0,0-.3.3,3.284,3.284,0,0,0-.227.321l-1.018-.7a2.289,2.289,0,0,1,.4-.644,2.507,2.507,0,0,1,.573-.473,2.725,2.725,0,0,1,.7-.293,3,3,0,0,1,.771-.1,3.071,3.071,0,0,1,.878.129,2.219,2.219,0,0,1,.778.41,2.143,2.143,0,0,1,.562.718,2.366,2.366,0,0,1,.229,1.05,2.291,2.291,0,0,1-.087.659,1.878,1.878,0,0,1-.252.521,2.16,2.16,0,0,1-.386.42,4.328,4.328,0,0,1-.5.363c-.155.094-.311.185-.468.27a2.837,2.837,0,0,0-.427.287,1.367,1.367,0,0,0-.315.363.943.943,0,0,0-.124.494Zm.023,2.725V182.8h1.3v1.615Z" transform="translate(-353.411 -152.945)" fill="#ebebeb"/>
        <path id="Path_21275" data-name="Path 21275" d="M164.865,237.3a2.69,2.69,0,0,1-.03-1.046,1.7,1.7,0,0,1,.59-.938c.1-.094.224-.2.374-.33a3.764,3.764,0,0,0,.425-.419,1.869,1.869,0,0,0,.315-.516,1,1,0,0,0,.046-.6.964.964,0,0,0-.181-.405.988.988,0,0,0-.306-.247,1.007,1.007,0,0,0-.389-.115,1.421,1.421,0,0,0-.419.023,1.23,1.23,0,0,0-.44.183,1.66,1.66,0,0,0-.33.3,1.91,1.91,0,0,0-.234.361,3.223,3.223,0,0,0-.165.363L163,233.43a2.287,2.287,0,0,1,.262-.713,2.435,2.435,0,0,1,.463-.582,2.654,2.654,0,0,1,.62-.432,3.082,3.082,0,0,1,.735-.257,3.118,3.118,0,0,1,.885-.056,2.238,2.238,0,0,1,.845.239,2.107,2.107,0,0,1,.7.588,2.588,2.588,0,0,1,.481,1.648,1.853,1.853,0,0,1-.138.56,2.19,2.19,0,0,1-.29.494,4.573,4.573,0,0,1-.417.46c-.133.124-.267.244-.4.359a2.9,2.9,0,0,0-.359.369,1.432,1.432,0,0,0-.234.42.969.969,0,0,0-.016.512Zm.588,2.661-.33-1.579,1.27-.27.33,1.58Z" transform="translate(-143.345 -199.2)" fill="#ebebeb"/>
        <path id="Path_21276" data-name="Path 21276" d="M414.564,335.126l2.2-.046,1.084-.018c.361-.008.718,0,1.078-.01l-.073.074-.01-1.844.082.082-2.187-.01c-.727,0-1.453-.02-2.182-.028l.046-.045c0,.3-.015.6-.023.913Zm0,0-.023-.913c0-.306-.018-.618-.021-.931v-.044h.045c.728-.008,1.455-.026,2.182-.028l2.182-.01h.082v2h-.074c-.368,0-.737,0-1.1-.01l-1.1-.018Z" transform="translate(-353.419 -284.242)" fill="#ebebeb"/>
        <path id="Path_21277" data-name="Path 21277" d="M429.334,349.236l2.2-.046,1.084-.018c.361-.008.718,0,1.078-.01l-.073.074-.008-1.844.081.082-2.182-.01c-.727,0-1.453-.02-2.182-.028l.046-.044c0,.3-.015.6-.021.913Zm0,0-.023-.913c0-.307-.018-.618-.021-.931v-.045h.045c.728-.008,1.455-.026,2.182-.028l2.182-.01h.084v.082l-.01,1.844v.074h-.081c-.367,0-.735,0-1.1-.01l-1.1-.018Z" transform="translate(-365.755 -296.027)" fill="#ebebeb"/>
        <path id="Path_21278" data-name="Path 21278" d="M399.774,349.236l2.2-.046,1.084-.018c.359-.008.718,0,1.078-.01l-.072.074-.007-1.844.082.082-2.182-.01c-.727,0-1.455-.02-2.182-.028l.044-.044c0,.3-.013.6-.021.913Zm0,0-.023-.913c-.008-.307-.018-.618-.021-.931v-.045h.044c.727-.008,1.455-.026,2.182-.028l2.182-.01h.082v.082l0,1.844v.074h-.073c-.367,0-.737,0-1.1-.01l-1.1-.018Z" transform="translate(-341.066 -296.027)" fill="#ebebeb"/>
        <path id="Path_21279" data-name="Path 21279" d="M58.5,349.236l2.2-.046,1.084-.018c.361-.008.72,0,1.079-.01l-.074.074-.008-1.844.082.082-2.177-.01c-.728,0-1.455-.02-2.182-.028l.044-.044c0,.3-.015.6-.021.913Zm0,0-.025-.913c0-.307-.018-.618-.021-.931v-.045H58.5c.727-.008,1.453-.026,2.182-.028l2.182-.01h.082v.082l-.01,1.844v.074H62.86c-.367,0-.737,0-1.1-.01l-1.1-.018Z" transform="translate(-56.023 -296.027)" fill="#ebebeb"/>
        <path id="Path_21280" data-name="Path 21280" d="M58.5,38.015l2.2-.046,1.084-.02H62.86l-.074.074-.008-1.844.082.081-2.177-.02c-.728,0-1.455-.018-2.182-.026l.044-.044c0,.3-.015.6-.021.911Zm0,0-.025-.913c0-.308-.018-.62-.021-.931v-.044H58.5c.727,0,1.453-.026,2.182-.026l2.182-.01h.082v.084l-.01,1.844v.073H62.86c-.367,0-.737,0-1.1-.008l-1.1-.03Z" transform="translate(-56.023 -36.09)" fill="#ebebeb"/>
        <path id="Path_21281" data-name="Path 21281" d="M43.766,52.125l2.2-.046,1.084-.02H48.13l-.074.074V50.289l.082.081-2.2-.018c-.728,0-1.455-.02-2.175-.02l.044-.044c0,.3-.015.6-.021.911Zm0,0-.025-.913c0-.308-.018-.62-.021-.931v-.044h.046c.727,0,1.453-.026,2.182-.026l2.182-.01h.082v.084l-.01,1.844V52.2H47.025l-1.1-.02Z" transform="translate(-43.72 -47.875)" fill="#ebebeb"/>
        <path id="Path_21282" data-name="Path 21282" d="M429.334,38.016l2.2-.046,1.084-.018c.361,0,.718,0,1.078-.01l-.073.074-.008-1.844.081.082-2.182-.015c-.727,0-1.453-.018-2.182-.026l.046-.044c0,.3-.015.6-.021.911Zm0,0-.023-.913c0-.308-.018-.618-.021-.931v-.044h.045c.728-.008,1.455-.025,2.182-.026l2.175-.012h.084v.082l-.008,1.844v.074h-1.178l-1.1-.018Z" transform="translate(-365.755 -36.09)" fill="#ebebeb"/>
        <path id="Path_21283" data-name="Path 21283" d="M263.676,192.437l-2.2.046-1.084.018c-.361.008-.72,0-1.079.01l.074-.074.008,1.844-.082-.082,2.182.012c.728,0,1.455.018,2.182.026l-.044.045c0-.3.015-.6.021-.911Zm0,0,.025.913c0,.308.018.618.021.931v.044h-.046c-.727,0-1.453.025-2.182.026l-2.182.01h-.082v-.084l.01-1.844v-.074h.073c.367,0,.737,0,1.1.008l1.1.018Z" transform="translate(-223.718 -166.61)" fill="#ebebeb"/>
        <path id="Path_21284" data-name="Path 21284" d="M248.9,178.336l-2.2.046-1.084.018c-.361,0-.72,0-1.079.01l.074-.074.008,1.844-.082-.082,2.182.012c.727,0,1.455.018,2.182.026l-.045.044c0-.3.013-.6.021-.911Zm0,0,.023.913c.008.308.02.618.021.931v.044H248.9c-.727.008-1.455.025-2.182.026l-2.182.01h-.082v-.082l.01-1.844v-.074h.081c.367,0,.737,0,1.1.008l1.1.018Z" transform="translate(-211.373 -154.833)" fill="#ebebeb"/>
      </g>
      <g id="freepik--Floor--inject-603" transform="translate(38.37 96.78)">
        <path id="Path_21285" data-name="Path 21285" d="M38.37,409.1l8.719-.04,8.719-.015,17.435-.028,17.435.028,8.719.015,8.719.04-8.719.041-8.719.015-17.435.026-17.435-.026-8.719-.015Z" transform="translate(-38.37 -409.02)" fill="#263238"/>
      </g>
      <g id="freepik--Shadow--inject-603" transform="translate(43.518 99.591)">
        <ellipse id="Ellipse_1185" data-name="Ellipse 1185" cx="29.725" cy="2.894" rx="29.725" ry="2.894" transform="translate(0)" fill="#ebebeb"/>
      </g>
      <g id="freepik--Plant--inject-603" transform="translate(88.01 73.29)">
        <path id="Path_21286" data-name="Path 21286" d="M400.089,293.688c-.626-.613-1.435-1.354-2.393-1.089-.9.249-1.244,1.231-1.406,2.05-.208,1.056-.369,2.121-.537,3.184s-.33,2.142-.483,3.222q-.132.91-.257,1.821-.064.455-.127.91c-.041.3-.091.6-.107.9a.084.084,0,0,0,.165.018c.117-.506.165-1.033.239-1.546s.15-1.035.224-1.551c.15-1.027.307-2.052.46-3.078s.315-2.05.479-3.075c.138-.87.2-1.949.974-2.523a1.494,1.494,0,0,1,1.442-.135,4.346,4.346,0,0,1,1.308.916C400.089,293.72,400.106,293.7,400.089,293.688Z" transform="translate(-385.691 -288.247)" fill="#263238"/>
        <path id="Path_21287" data-name="Path 21287" d="M411.205,286.52s-1.28-.46-1.911.473.124,3.309,5.949,4.648a16.416,16.416,0,0,0-1.4-5.265C412.593,283.653,410.367,284.684,411.205,286.52Z" transform="translate(-397.659 -281.705)" fill="#5d2ece"/>
        <path id="Path_21288" data-name="Path 21288" d="M422.14,299.987a4.5,4.5,0,0,0-.293-.471c-.1-.15-.2-.3-.3-.448-.074-.112-.152-.224-.227-.33a.24.24,0,0,1,.01-.082l.02-.152c.015-.109.031-.219.046-.33s.035-.216.056-.33a1.694,1.694,0,0,1,.076-.343c0-.018-.023-.026-.025,0a1.305,1.305,0,0,1-.053.194l-.04.147c-.028.11-.054.221-.079.33s-.043.206-.061.308c-.008.051-.015.1-.021.15-.1-.148-.211-.295-.32-.438-.31-.407-.636-.8-.975-1.183V297a10.539,10.539,0,0,1,.152-1.813c0-.016-.02-.026-.025-.01a6.287,6.287,0,0,0-.218,1.742c-.12-.135-.244-.27-.367-.4-.285-.3-.573-.606-.868-.9-.012-.012-.031,0-.02.018.494.529.957,1.079,1.412,1.64a10,10,0,0,0-1.066.04c-.394.028-.786.079-1.178.133-.018,0-.013.028,0,.026a10.406,10.406,0,0,1,1.176-.106c.381-.016.758,0,1.139,0q.369.455.727.92h-.316c-.178,0-.354.016-.531.031a7.879,7.879,0,0,0-1.076.165.013.013,0,0,0,0,.026c.358-.041.717-.074,1.076-.087h.8a.328.328,0,0,0,.147-.013l.468.611q.185.247.366.494c.12.165.234.354.369.512C422.129,300.015,422.147,300,422.14,299.987Z" transform="translate(-404.891 -290.439)" fill="#263238"/>
        <path id="Path_21289" data-name="Path 21289" d="M418.822,303.56a3.937,3.937,0,0,0-.623-.03c-.208,0-.417,0-.625.013a.013.013,0,0,0,0,.026c.211-.016.422-.02.633-.016s.409.023.611.016C418.828,303.569,418.828,303.561,418.822,303.56Z" transform="translate(-404.718 -297.421)" fill="#263238"/>
        <path id="Path_21290" data-name="Path 21290" d="M435.825,303.488c.023-.2.048-.4.091-.595a.013.013,0,0,0-.026,0c-.03.2-.068.391-.1.587-.015.1-.028.2-.041.293a1.442,1.442,0,0,0-.023.279.018.018,0,0,0,.035,0,1.749,1.749,0,0,0,.03-.279C435.8,303.677,435.813,303.582,435.825,303.488Z" transform="translate(-419.892 -296.88)" fill="#263238"/>
        <path id="Path_21291" data-name="Path 21291" d="M432.956,293.147c-.051.194-.1.391-.137.587-.018.1-.035.2-.048.3a1.256,1.256,0,0,0-.02.295.008.008,0,0,0,.008.008.008.008,0,0,0,.008-.008,1.6,1.6,0,0,0,.044-.28c.013-.1.028-.193.045-.29.036-.2.073-.4.123-.6C432.983,293.14,432.956,293.131,432.956,293.147Z" transform="translate(-417.404 -288.744)" fill="#263238"/>
        <path id="Path_21292" data-name="Path 21292" d="M373.466,328.982c-.033-.366-.069-.733-.107-1.1q-.117-1.088-.262-2.173c-.1-.72-.19-1.443-.307-2.162a5.246,5.246,0,0,0-.222-.989.931.931,0,0,0-.544-.615c-.685-.236-1.153.475-1.424.977-.008.015.013.026.023.013.165-.239.623-.906,1.144-.875.349.02.629.269.8,1.14.419,2.173.8,6.591.84,6.873.023.153.13.147.132-.018C373.53,329.7,373.489,329.341,373.466,328.982Z" transform="translate(-365.494 -312.764)" fill="#263238"/>
        <path id="Path_21293" data-name="Path 21293" d="M356.437,319.656s.6-2.116-.725-1.058c-2.2,1.761-2.282,5.586-2.282,5.586s3.918-2.276,4.4-3.777C358.561,318.177,356.437,319.656,356.437,319.656Z" transform="translate(-351.154 -309.761)" fill="#5d2ece"/>
        <path id="Path_21294" data-name="Path 21294" d="M358.414,326.2c-.306.063-.62.1-.929.148l-.442.063c-.1.013-.2.023-.3.035.292-.4.587-.8.867-1.213a.016.016,0,0,0-.026-.02,8.972,8.972,0,0,0-.659.756l-.175-.494c-.066-.189-.138-.377-.186-.573,0-.016-.03,0-.025.008.053.193.091.392.143.587s.107.372.173.555c-.143.186-.282.377-.415.57-.068-.191-.152-.376-.209-.57,0-.016-.031-.008-.026,0,.071.216.109.438.175.659-.091.132-.18.264-.265.4-.165.246-.308.494-.453.745a.058.058,0,0,0-.035.059c-.247.428-.483.862-.715,1.3a.013.013,0,1,0,.023.013c.232-.433.494-.855.76-1.269h0a.512.512,0,0,1,.129-.025l.135-.03c.1-.021.2-.048.3-.072.2-.049.4-.1.6-.132.016,0,.008-.028,0-.025-.237.044-.475.072-.715.1-.114.013-.226.028-.338.046h-.017q.209-.32.428-.636c.142-.206.288-.41.435-.615.137-.018.27-.054.405-.079l.455-.089c.3-.061.606-.129.911-.178C358.439,326.232,358.431,326.2,358.414,326.2Z" transform="translate(-352.39 -315.269)" fill="#263238"/>
        <path id="Path_21295" data-name="Path 21295" d="M361.037,331.4c-.018-.056-.035-.112-.053-.165a3.3,3.3,0,0,1-.091-.356c0-.016-.028-.008-.025,0,.026.12.054.239.081.358a2.136,2.136,0,0,0,.1.351.025.025,0,0,0,.046-.013C361.079,331.521,361.055,331.462,361.037,331.4Z" transform="translate(-357.367 -320.26)" fill="#263238"/>
        <path id="Path_21296" data-name="Path 21296" d="M373.118,329.85c-.178.026-.358.04-.539.056s-.358.04-.537.068c-.01,0-.01.016,0,.015.18-.012.359-.026.539-.049s.358-.049.539-.063C373.137,329.874,373.135,329.848,373.118,329.85Z" transform="translate(-366.694 -319.406)" fill="#263238"/>
        <path id="Path_21297" data-name="Path 21297" d="M370.507,290.58c-.071-1.557-.165-3.113-.33-4.663-.077-.773-.165-1.544-.274-2.307a16.216,16.216,0,0,0-.447-2.239,4.31,4.31,0,0,0-.745-1.579,1.7,1.7,0,0,0-1.506-.659,3.053,3.053,0,0,0-1.705.98c-.532.524-1.02,1.1-1.513,1.648-.125.142-.249.285-.372.428-.01.013.008.031.02.018.483-.554.989-1.092,1.508-1.607a4.335,4.335,0,0,1,1.648-1.193,1.723,1.723,0,0,1,.962-.023,1.527,1.527,0,0,1,.659.417,3.43,3.43,0,0,1,.742,1.44,24.934,24.934,0,0,1,.723,4.411c.155,1.478.265,3.007.341,4.517s.135,3.034.282,4.546c.018.186.041.372.066.559.015.124.209.125.2,0C370.648,293.709,370.576,292.145,370.507,290.58Z" transform="translate(-359.659 -277.039)" fill="#263238"/>
        <path id="Path_21298" data-name="Path 21298" d="M345.379,274.855s.89-1.648-.165-2.175-4.568,3.4-5.594,9.139c0,0,5.68-2.513,7.61-5.018S346.974,273.746,345.379,274.855Z" transform="translate(-339.62 -271.617)" fill="#5d2ece"/>
        <path id="Path_21299" data-name="Path 21299" d="M350.669,285.9c-.638,0-1.275-.048-1.913-.044l.359-.41a5.761,5.761,0,0,0,.494-.58c.008-.013-.01-.031-.023-.021a4.339,4.339,0,0,0-.483.484c-.165.165-.32.339-.478.511-.244.265-.483.532-.722.8v-1.056c0-.438,0-.88.033-1.318,0-.016-.025-.016-.026,0-.03.442-.076.88-.1,1.318-.01.218-.015.433-.018.651v.517c-.036.043-.076.084-.112.125-.509.583-.989,1.185-1.467,1.8a.429.429,0,0,0-.008-.1c0-.068-.015-.135-.021-.2-.016-.147-.036-.292-.059-.438s-.041-.274-.064-.41-.064-.308-.076-.463a.013.013,0,0,0-.02-.015.013.013,0,0,0,0,.015,4.47,4.47,0,0,1,.053.468l.039.422c.012.14.025.28.04.422l.02.2a.7.7,0,0,0,.013.1.165.165,0,0,0,.026.081l-.242.316c-.33.427-.639.858-.956,1.289-.01.013.01.031.02.018.3-.39.608-.774.919-1.153.234.01.473-.008.707-.012s.494,0,.738,0a.013.013,0,1,0,0-.026c-.247,0-.494.008-.74.01s-.453-.01-.677,0c.273-.33.552-.659.824-1l.323-.363a1.493,1.493,0,0,0,.285.01h.33c.209,0,.419,0,.629-.008.433,0,.867-.022,1.3-.023a.013.013,0,0,0,.015,0,.013.013,0,0,0,0-.016.013.013,0,0,0-.015,0c-.435,0-.868-.025-1.3-.036-.211,0-.42-.012-.631-.015h-.524l.717-.849a.039.039,0,0,0,.013-.015c.232-.275.465-.549.7-.824.033-.036.066-.073.1-.11.659.02,1.318-.023,1.977-.01C350.687,285.927,350.687,285.9,350.669,285.9Z" transform="translate(-344.075 -281.324)" fill="#263238"/>
        <path id="Path_21300" data-name="Path 21300" d="M376.816,301.09h-.155a.012.012,0,1,0,0,.023h.153a.013.013,0,0,0,0-.023Z" transform="translate(-370.548 -295.385)" fill="#263238"/>
        <path id="Path_21301" data-name="Path 21301" d="M369.423,300.972c-.2,0-.409,0-.613-.013l-.3,0a1.175,1.175,0,0,0-.285,0,.01.01,0,0,0,0,.02,1.116,1.116,0,0,0,.287.02h.919C369.441,301,369.441,300.972,369.423,300.972Z" transform="translate(-363.499 -295.266)" fill="#263238"/>
        <path id="Path_21302" data-name="Path 21302" d="M358.367,312.164a8.251,8.251,0,0,0-1.257-.114v.008c.419.04.835.063,1.251.13C358.377,312.192,358.384,312.165,358.367,312.164Z" transform="translate(-354.228 -304.539)" fill="#263238"/>
        <path id="Path_21303" data-name="Path 21303" d="M353.576,297.428a.827.827,0,0,0-.013-.109c-.01-.082-.023-.165-.036-.246-.025-.157-.051-.311-.081-.468,0-.013-.028-.01-.026,0,.02.165.038.321.053.483l.02.237a.677.677,0,0,0,.031.224.031.031,0,0,0,.056-.008A.321.321,0,0,0,353.576,297.428Z" transform="translate(-351.146 -291.633)" fill="#263238"/>
        <path id="Path_21304" data-name="Path 21304" d="M393.709,268.99c-.2-.379-.463-.878-.971-.847-.419.026-.608.453-.7.807a16.949,16.949,0,0,0-.349,3.366c-.115,2.368-.218,4.737-.232,7.109V281.4c0,.671,0,1.345.046,2.014a.049.049,0,1,0,.1,0c0-.573-.017-1.153-.018-1.72s0-1.119.01-1.679q.028-1.7.091-3.4c.043-1.125.092-2.251.14-3.376.023-.562.048-1.125.073-1.687s.048-1.089.11-1.631c.035-.3.079-.608.143-.906a1.254,1.254,0,0,1,.262-.608.57.57,0,0,1,.74-.053,1.561,1.561,0,0,1,.526.659.019.019,0,1,0,.028-.026Z" transform="translate(-382.918 -267.866)" fill="#263238"/>
        <path id="Path_21305" data-name="Path 21305" d="M398.8,267.411s-.417-1.473.506-.737c1.536,1.226,1.59,3.894,1.59,3.894s-2.73-1.585-3.07-2.636C397.32,266.38,398.8,267.411,398.8,267.411Z" transform="translate(-388.147 -266.468)" fill="#5d2ece"/>
        <path id="Path_21306" data-name="Path 21306" d="M403.777,274.841c-.025-.041-.051-.081-.077-.122a.817.817,0,0,0,0-.125v-.19a3.546,3.546,0,0,1,.013-.374.013.013,0,0,0-.026,0c0,.122-.011.246-.015.367v.262c-.107-.165-.217-.33-.33-.494-.033-.048-.068-.094-.1-.14a2.616,2.616,0,0,1-.008-.481c0-.165,0-.343.01-.514a.013.013,0,0,0-.026,0c0,.178-.013.356-.023.534a3.26,3.26,0,0,0-.01.381c-.264-.358-.544-.7-.824-1.048a.013.013,0,0,0-.02.016c.175.222.343.45.508.681-.321-.076-.648-.119-.974-.165-.016,0-.023.023,0,.026.346.053.686.138,1.027.214h0c.13.185.26.369.387.555l.155.227h-.013l-.107-.015-.227-.02c-.157-.013-.315-.021-.473-.03-.016,0-.015.026,0,.026a4.347,4.347,0,0,1,.463.031l.246.03.105.013h.031c.087.128.176.257.262.386.155.229.293.473.456.692a.013.013,0,0,0,.021-.013A6.9,6.9,0,0,0,403.777,274.841Z" transform="translate(-391.603 -271.833)" fill="#263238"/>
        <path id="Path_21307" data-name="Path 21307" d="M409.214,271.824v-.173a2.635,2.635,0,0,1,.015-.361.013.013,0,1,0-.025,0c0,.12-.013.239-.02.358v.262a.3.3,0,0,0,0,.086.012.012,0,1,0,.023,0,.255.255,0,0,0,0-.079Z" transform="translate(-397.719 -270.481)" fill="#263238"/>
        <path id="Path_21308" data-name="Path 21308" d="M404.031,277.986c-.1-.018-.206-.023-.308-.031s-.224-.02-.33-.035a.013.013,0,1,0,0,.026c.216.013.43.053.646.059C404.041,278.007,404.042,277.987,404.031,277.986Z" transform="translate(-392.874 -276.033)" fill="#263238"/>
        <path id="Path_21309" data-name="Path 21309" d="M412.5,278.3c.008.012,0,.044,0,.058v.254a.229.229,0,0,0,0,.089h.01a.093.093,0,0,0,0-.043.454.454,0,0,1,0-.048v-.31C412.512,278.287,412.486,278.274,412.5,278.3Z" transform="translate(-400.488 -276.338)" fill="#263238"/>
        <path id="Path_21310" data-name="Path 21310" d="M381.695,315.516c-.573-.43-1.089-1.05-1.862-1.081a1.493,1.493,0,0,0-1.34.989,5.712,5.712,0,0,0-.311.882q-.173.6-.33,1.214-.3,1.2-.511,2.422c-.077.453-.15.908-.208,1.364a11.692,11.692,0,0,0-.133,1.4.072.072,0,0,0,.143.017c.078-.382.11-.776.165-1.162s.115-.776.18-1.162q.2-1.153.458-2.307c.165-.723.33-1.457.559-2.16a1.82,1.82,0,0,1,.98-1.274c.824-.275,1.58.425,2.187.882C381.69,315.546,381.708,315.526,381.695,315.516Z" transform="translate(-370.84 -306.53)" fill="#263238"/>
        <path id="Path_21311" data-name="Path 21311" d="M391.836,309.115s-.531-1.511.236-1.813c1.153-.443,4.149,2.938,3.561,8.119a29.519,29.519,0,0,1-4.032-2.716c-1.714-1.439-2.142-3.315-1.4-3.8S391.836,309.115,391.836,309.115Z" transform="translate(-381.575 -300.541)" fill="#5d2ece"/>
        <path id="Path_21312" data-name="Path 21312" d="M402.988,322.4a3.964,3.964,0,0,0-.279-.522c-.1-.178-.2-.354-.3-.529-.2-.341-.4-.682-.6-1.022l-.1-.165a.4.4,0,0,1,.011-.061l.035-.15c.026-.112.046-.226.066-.339.043-.221.081-.445.14-.659,0-.015-.021-.02-.025,0-.048.221-.119.44-.183.659-.033.107-.068.212-.1.321l-.03.11c-.245-.4-.494-.806-.768-1.195a.549.549,0,0,0,.028-.165c.008-.076.017-.152.026-.227.02-.165.039-.341.064-.511.049-.33.1-.659.181-.989,0-.016-.021-.021-.025,0-.084.33-.173.659-.236.989-.03.165-.059.33-.081.494-.01.082-.02.165-.028.247a.2.2,0,0,1-.01.074c-.082-.117-.165-.236-.252-.349-.265-.349-.54-.689-.824-1.028-.01-.013-.033,0-.021.015a18.382,18.382,0,0,1,1.305,1.9l.226.367-.076-.01c-.1-.013-.194-.018-.292-.028l-.587-.051c-.391-.031-.783-.054-1.172-.1-.017,0-.022.023,0,.025.4.046.788.109,1.181.165.194.028.387.054.582.079a2.311,2.311,0,0,0,.447.044c.153.251.308.494.461.748h-1.417c-.018,0-.015.025,0,.025.255,0,.509.016.765.03l.363.021.181.013a.363.363,0,0,0,.165,0l.392.636c.12.2.242.391.366.585a4.772,4.772,0,0,0,.394.59C402.973,322.425,402.995,322.417,402.988,322.4Z" transform="translate(-389.277 -308.626)" fill="#263238"/>
        <path id="Path_21313" data-name="Path 21313" d="M414.852,324.587a3.643,3.643,0,0,1-.1.494c-.043.165-.091.33-.145.494a.016.016,0,1,0,.031.01c.051-.165.1-.33.137-.494s.066-.33.107-.5a.013.013,0,0,0-.026,0Z" transform="translate(-402.247 -315)" fill="#263238"/>
        <path id="Path_21314" data-name="Path 21314" d="M397.589,329.662a.2.2,0,0,0-.127-.048l-.219-.03c-.135-.018-.272-.033-.407-.049-.283-.033-.565-.061-.849-.1-.016,0-.021.023,0,.025.267.033.532.074.8.109l.391.051.19.02a.66.66,0,0,1,.214.038.012.012,0,0,0,.008-.02Z" transform="translate(-386.687 -319.063)" fill="#263238"/>
        <path id="Path_21315" data-name="Path 21315" d="M411.827,344.52c-.134-.011-.269-.016-.4-.02h-.3a.657.657,0,0,1-.127,0c-.018,0-.02.028,0,.025a.567.567,0,0,1,.119,0h.105l.2.013c.134.008.269.016.4.016C411.842,344.548,411.843,344.52,411.827,344.52Z" transform="translate(-399.224 -331.642)" fill="#263238"/>
        <path id="Path_21316" data-name="Path 21316" d="M420.655,337.609l.045-.227c.026-.15.054-.3.082-.448a.013.013,0,0,0-.026,0l-.1.437c-.016.072-.033.145-.048.217a.457.457,0,0,1-.021.1.292.292,0,0,0-.012.107.016.016,0,0,0,.03.008A.536.536,0,0,0,420.655,337.609Z" transform="translate(-407.235 -325.311)" fill="#263238"/>
        <path id="Path_21317" data-name="Path 21317" d="M373.4,361.1l.162,1.837.549,6.2h4.856l.685-6.2.2-1.837Z" transform="translate(-367.834 -345.506)" fill="#37474f"/>
        <path id="Path_21318" data-name="Path 21318" d="M373.4,361.1l.162,1.837h6.09l.2-1.837Z" transform="translate(-367.834 -345.506)" fill="#263238"/>
        <rect id="Rectangle_2699" data-name="Rectangle 2699" width="7.417" height="1.49" transform="translate(12.502 16.584) rotate(180)" fill="#37474f"/>
      </g>
      <g id="freepik--question-mark--inject-603" transform="translate(58.994 43.54)">
        <path id="Path_21319" data-name="Path 21319" d="M178,125.181a18.592,18.592,0,0,1,1.292-7.107,11.781,11.781,0,0,1,5.329-5.492q1.213-.727,2.989-1.648a24.113,24.113,0,0,0,3.472-2.221,12.688,12.688,0,0,0,2.867-3.027,6.98,6.98,0,0,0,1.172-4,6.6,6.6,0,0,0-.643-3,6.857,6.857,0,0,0-1.7-2.18,7.063,7.063,0,0,0-2.472-1.333,9.557,9.557,0,0,0-2.867-.443,8.331,8.331,0,0,0-3.22.6,11.023,11.023,0,0,0-2.623,1.534,12.864,12.864,0,0,0-2.1,2.1,23.042,23.042,0,0,0-1.574,2.22h-1.216L170.9,96.344a15.683,15.683,0,0,1,2.786-4.449,17.1,17.1,0,0,1,3.955-3.271,18.533,18.533,0,0,1,4.81-2.007,20.725,20.725,0,0,1,5.331-.687,21.181,21.181,0,0,1,6.057.888,15.394,15.394,0,0,1,5.37,2.828,14.666,14.666,0,0,1,3.877,4.966,16.2,16.2,0,0,1,1.493,7.229,15.615,15.615,0,0,1-.6,4.563,12.724,12.724,0,0,1-1.738,3.6,15.143,15.143,0,0,1-2.665,2.907,30.532,30.532,0,0,1-3.474,2.5q-1.617.972-3.23,1.859a19.444,19.444,0,0,0-2.948,1.977,9.643,9.643,0,0,0-2.182,2.5,6.564,6.564,0,0,0-.847,3.432ZM178.167,144V132.853h8.964V144Z" transform="translate(-169.686 -85.93)" fill="#5d2ece"/>
        <g id="Group_9699" data-name="Group 9699" transform="translate(1.214 0)" opacity="0.2">
          <path id="Path_21320" data-name="Path 21320" d="M178,125.181a18.592,18.592,0,0,1,1.292-7.107,11.781,11.781,0,0,1,5.329-5.492q1.213-.727,2.989-1.648a24.113,24.113,0,0,0,3.472-2.221,12.688,12.688,0,0,0,2.867-3.027,6.98,6.98,0,0,0,1.172-4,6.6,6.6,0,0,0-.643-3,6.857,6.857,0,0,0-1.7-2.18,7.063,7.063,0,0,0-2.472-1.333,9.557,9.557,0,0,0-2.867-.443,8.331,8.331,0,0,0-3.22.6,11.023,11.023,0,0,0-2.623,1.534,12.864,12.864,0,0,0-2.1,2.1,23.042,23.042,0,0,0-1.574,2.22h-1.216L170.9,96.344a15.683,15.683,0,0,1,2.786-4.449,17.1,17.1,0,0,1,3.955-3.271,18.533,18.533,0,0,1,4.81-2.007,20.725,20.725,0,0,1,5.331-.687,21.181,21.181,0,0,1,6.057.888,15.394,15.394,0,0,1,5.37,2.828,14.666,14.666,0,0,1,3.877,4.966,16.2,16.2,0,0,1,1.493,7.229,15.615,15.615,0,0,1-.6,4.563,12.724,12.724,0,0,1-1.738,3.6,15.143,15.143,0,0,1-2.665,2.907,30.532,30.532,0,0,1-3.474,2.5q-1.617.972-3.23,1.859a19.444,19.444,0,0,0-2.948,1.977,9.643,9.643,0,0,0-2.182,2.5,6.564,6.564,0,0,0-.847,3.432ZM178.167,144V132.853h8.964V144Z" transform="translate(-170.9 -85.93)"/>
        </g>
        <path id="Path_21321" data-name="Path 21321" d="M170.637,125.181a18.593,18.593,0,0,1,1.292-7.107,11.78,11.78,0,0,1,5.331-5.492q1.211-.727,2.987-1.648a24.037,24.037,0,0,0,3.474-2.221,12.718,12.718,0,0,0,2.867-3.027,6.992,6.992,0,0,0,1.17-4,6.605,6.605,0,0,0-.646-2.987,6.857,6.857,0,0,0-1.7-2.18,7.062,7.062,0,0,0-2.472-1.333,9.557,9.557,0,0,0-2.867-.443,8.318,8.318,0,0,0-3.221.592,11.04,11.04,0,0,0-2.625,1.534,12.856,12.856,0,0,0-2.1,2.1,23.074,23.074,0,0,0-1.575,2.22l-7.026-4.845a15.655,15.655,0,0,1,2.786-4.449,17.055,17.055,0,0,1,3.955-3.271,18.542,18.542,0,0,1,4.808-2.007,20.711,20.711,0,0,1,5.336-.687,21.173,21.173,0,0,1,6.057.888,15.379,15.379,0,0,1,5.37,2.828,14.649,14.649,0,0,1,3.877,4.967,16.211,16.211,0,0,1,1.495,7.229,15.612,15.612,0,0,1-.606,4.563,12.687,12.687,0,0,1-1.743,3.6,15.141,15.141,0,0,1-2.665,2.907,30.233,30.233,0,0,1-3.474,2.5q-1.613.972-3.23,1.859a19.448,19.448,0,0,0-2.948,1.977,9.636,9.636,0,0,0-2.18,2.5,6.575,6.575,0,0,0-.849,3.432ZM170.8,144V132.853h8.954V144Z" transform="translate(-165.53 -85.93)" fill="#5d2ece"/>
      </g>
      <g id="freepik--speech-bubble--inject-603" transform="translate(53.589 35.177)">
        <path id="Path_21393" data-name="Path 21393" d="M140.479,86.988a.941.941,0,1,1-.332-.64A.941.941,0,0,1,140.479,86.988Z" transform="translate(-137.304 -77.732)" fill="#fff"/>
        <path id="Path_21394" data-name="Path 21394" d="M139.676,86.8a1.031,1.031,0,1,1-1.018-.9A.989.989,0,0,1,139.676,86.8Zm0,0a.9.9,0,1,0-.221.673A.9.9,0,0,0,139.676,86.8Z" transform="translate(-136.501 -77.539)" fill="#263238"/>
        <path id="Path_21395" data-name="Path 21395" d="M132.277,99.447a.522.522,0,1,1-.184-.357A.524.524,0,0,1,132.277,99.447Z" transform="translate(-131.149 -88.456)" fill="#fff"/>
        <path id="Path_21396" data-name="Path 21396" d="M131.86,99.249a.565.565,0,1,1-.57-.519A.565.565,0,0,1,131.86,99.249Zm0,0a.484.484,0,1,0-.428.522A.483.483,0,0,0,131.86,99.249Z" transform="translate(-130.731 -88.258)" fill="#263238"/>
        <path id="Path_21397" data-name="Path 21397" d="M141.389,40.263a2.75,2.75,0,0,1-2.4,3.06,2.72,2.72,0,0,1-1.4-.2,2.307,2.307,0,0,1-3.666,0,1.912,1.912,0,0,1-.31.064,1.869,1.869,0,0,1-1.755-2.93,2.749,2.749,0,0,1,3.7-3.976,2.307,2.307,0,0,1,3.955.628,1.438,1.438,0,0,1,.3-.066,1.509,1.509,0,0,1,1.3,2.506,2.706,2.706,0,0,1,.274.91Z" transform="translate(-131.185 -35.383)" fill="#fff"/>
        <path id="Path_21398" data-name="Path 21398" d="M140.961,40.057a2.79,2.79,0,0,1-.559,2.028,2.893,2.893,0,0,1-.511.5,2.783,2.783,0,0,1-2.735.356h.026a2.335,2.335,0,0,1-1.854.929,2.36,2.36,0,0,1-1.043-.239,2.424,2.424,0,0,1-.832-.679l.059.02a1.939,1.939,0,0,1-1.173-.016,1.92,1.92,0,0,1-.951-.694,2.081,2.081,0,0,1-.272-.532,2,2,0,0,1-.1-.59,1.948,1.948,0,0,1,.349-1.13V40.1a2.81,2.81,0,0,1,3.79-4.068l-.073.01a2.347,2.347,0,0,1,4.022.657l-.021-.012a1.536,1.536,0,0,1,.989.013,1.514,1.514,0,0,1,.611,2.444h0A2.69,2.69,0,0,1,140.961,40.057Zm0,0a2.7,2.7,0,0,0-.28-.908h0A1.5,1.5,0,0,0,139.1,36.72h-.016V36.7a2.307,2.307,0,0,0-.7-.956,2.259,2.259,0,0,0-1.084-.475,2.291,2.291,0,0,0-1.172.132,2.257,2.257,0,0,0-.941.7l-.031.04-.043-.03A2.684,2.684,0,0,0,131.5,40l.036.046-.035.048a1.791,1.791,0,0,0-.33,1.04,1.917,1.917,0,0,0,.087.545,1.856,1.856,0,0,0,.249.494,1.813,1.813,0,0,0,1.977.687l.038-.01.021.03a2.307,2.307,0,0,0,.788.659,2.269,2.269,0,0,0,2.818-.633l.012-.015h.016a2.714,2.714,0,0,0,1.4.2,2.77,2.77,0,0,0,1.318-.529,2.862,2.862,0,0,0,.511-.494,2.905,2.905,0,0,0,.364-.616A2.783,2.783,0,0,0,140.961,40.057Z" transform="translate(-130.756 -35.177)" fill="#263238"/>
        <path id="Path_21399" data-name="Path 21399" d="M161.218,48.9a1.537,1.537,0,0,1,.105-.587.967.967,0,0,1,.44-.453c.068-.041.148-.086.247-.137a1.977,1.977,0,0,0,.285-.183,1.068,1.068,0,0,0,.237-.25.579.579,0,0,0,.1-.33.541.541,0,0,0-.054-.247.558.558,0,0,0-.14-.18.572.572,0,0,0-.2-.109.775.775,0,0,0-.236-.038.659.659,0,0,0-.267.051.926.926,0,0,0-.216.125,1.02,1.02,0,0,0-.165.175,1.747,1.747,0,0,0-.13.183l-.58-.4a1.317,1.317,0,0,1,.231-.366,1.359,1.359,0,0,1,.323-.272,1.558,1.558,0,0,1,.4-.165,1.7,1.7,0,0,1,.44-.056,1.785,1.785,0,0,1,.494.073,1.289,1.289,0,0,1,.443.234,1.206,1.206,0,0,1,.32.409,1.356,1.356,0,0,1,.122.6,1.3,1.3,0,0,1-.049.376,1.031,1.031,0,0,1-.143.3,1.264,1.264,0,0,1-.219.241,2.378,2.378,0,0,1-.287.206l-.267.153a1.637,1.637,0,0,0-.242.165.76.76,0,0,0-.183.206.532.532,0,0,0-.071.283Zm.013,1.552v-.919h.738v.919Z" transform="translate(-155.712 -43.933)" fill="#5d2ece"/>
        <path id="Path_21400" data-name="Path 21400" d="M145.158,47.186a1.482,1.482,0,0,1,.016.595.96.96,0,0,1-.33.534c-.058.053-.129.114-.214.185a2.052,2.052,0,0,0-.242.237,1.057,1.057,0,0,0-.18.293.575.575,0,0,0-.026.343.522.522,0,0,0,.1.229.555.555,0,0,0,.175.148.575.575,0,0,0,.221.066.824.824,0,0,0,.239-.013.671.671,0,0,0,.25-.1.961.961,0,0,0,.186-.165,1,1,0,0,0,.133-.206,1.905,1.905,0,0,0,.089-.206l.649.274a1.275,1.275,0,0,1-.15.405,1.381,1.381,0,0,1-.264.33,1.562,1.562,0,0,1-.353.244,1.679,1.679,0,0,1-.419.145,1.719,1.719,0,0,1-.5.031,1.245,1.245,0,0,1-.481-.137,1.227,1.227,0,0,1-.4-.33,1.473,1.473,0,0,1-.272-.938,1.024,1.024,0,0,1,.079-.318,1.232,1.232,0,0,1,.165-.28,2.437,2.437,0,0,1,.237-.262c.076-.069.153-.138.229-.2a1.526,1.526,0,0,0,.2-.216.8.8,0,0,0,.133-.239.539.539,0,0,0,.01-.292Zm-.33-1.516.189.9-.723.152-.189-.9Z" transform="translate(-141.301 -43.941)" fill="#5d2ece"/>
      </g>
    </g>
  </g>
</svg>
