<svg xmlns="http://www.w3.org/2000/svg" width="72.171" height="72" viewBox="0 0 72.171 72">
  <g id="Group_9704" data-name="Group 9704" transform="translate(-3698 -2409)">
    <g id="Group_9700" data-name="Group 9700" transform="translate(3588 1224)">
      <rect id="Rectangle_2512" data-name="Rectangle 2512" width="72" height="72" rx="4" transform="translate(110 1185)" fill="#fff8fa"/>
    </g>
    <g id="Group_9704-2" data-name="Group 9704" transform="translate(-10.302 3662.169) rotate(-31)">
      <path id="Path_21756" data-name="Path 21756" d="M380.962,233.632l-.292-.594,1.586-.788.292.6Z" transform="translate(3449.905 654.682)" fill="#263238"/>
      <path id="Path_21757" data-name="Path 21757" d="M371.025,225.762l-4.855,13.333,10.188-7.964L415.32,217Z" transform="translate(3451.56 656.422)" fill="#e31c79"/>
      <path id="Path_21758" data-name="Path 21758" d="M371.025,225.762l-4.855,13.333,10.188-7.964L415.32,217Z" transform="translate(3451.56 656.422)" fill="#17153e" opacity="0.1"/>
      <path id="Path_21759" data-name="Path 21759" d="M377.66,236.06l-11.49,4.855,10.188-7.964Z" transform="translate(3451.56 654.602)" fill="#263238"/>
      <path id="Path_21760" data-name="Path 21760" d="M377.67,231.13,416.632,217l-31.964,31.193Z" transform="translate(3450.248 656.422)" fill="#e31c79"/>
      <path id="Path_21761" data-name="Path 21761" d="M369.564,225.544,353.37,215.09l60.49,1.692Z" transform="translate(3453.02 656.64)" fill="#e31c79"/>
    </g>
    <g id="freepik--Shadow--inject-603" transform="translate(3704.615 2471.213)">
      <ellipse id="Ellipse_1185" data-name="Ellipse 1185" cx="29.725" cy="2.894" rx="29.725" ry="2.894" transform="translate(0)" fill="#ebebeb"/>
    </g>
    <g id="freepik--Plant--inject-603" transform="translate(3749.107 2449.912)">
      <path id="Path_21286" data-name="Path 21286" d="M400.089,293.688c-.626-.613-1.435-1.354-2.393-1.089-.9.249-1.244,1.231-1.406,2.05-.208,1.056-.369,2.121-.537,3.184s-.33,2.142-.483,3.222q-.132.91-.257,1.821-.064.455-.127.91c-.041.3-.091.6-.107.9a.084.084,0,0,0,.165.018c.117-.506.165-1.033.239-1.546s.15-1.035.224-1.551c.15-1.027.307-2.052.46-3.078s.315-2.05.479-3.075c.138-.87.2-1.949.974-2.523a1.494,1.494,0,0,1,1.442-.135,4.346,4.346,0,0,1,1.308.916C400.089,293.72,400.106,293.7,400.089,293.688Z" transform="translate(-385.691 -288.247)" fill="#263238"/>
      <path id="Path_21287" data-name="Path 21287" d="M411.205,286.52s-1.28-.46-1.911.473.124,3.309,5.949,4.648a16.416,16.416,0,0,0-1.4-5.265C412.593,283.653,410.367,284.684,411.205,286.52Z" transform="translate(-397.659 -281.705)" fill="#e31c79"/>
      <path id="Path_21288" data-name="Path 21288" d="M422.14,299.987a4.5,4.5,0,0,0-.293-.471c-.1-.15-.2-.3-.3-.448-.074-.112-.152-.224-.227-.33a.24.24,0,0,1,.01-.082l.02-.152c.015-.109.031-.219.046-.33s.035-.216.056-.33a1.694,1.694,0,0,1,.076-.343c0-.018-.023-.026-.025,0a1.305,1.305,0,0,1-.053.194l-.04.147c-.028.11-.054.221-.079.33s-.043.206-.061.308c-.008.051-.015.1-.021.15-.1-.148-.211-.295-.32-.438-.31-.407-.636-.8-.975-1.183V297a10.539,10.539,0,0,1,.152-1.813c0-.016-.02-.026-.025-.01a6.287,6.287,0,0,0-.218,1.742c-.12-.135-.244-.27-.367-.4-.285-.3-.573-.606-.868-.9-.012-.012-.031,0-.02.018.494.529.957,1.079,1.412,1.64a10,10,0,0,0-1.066.04c-.394.028-.786.079-1.178.133-.018,0-.013.028,0,.026a10.406,10.406,0,0,1,1.176-.106c.381-.016.758,0,1.139,0q.369.455.727.92h-.316c-.178,0-.354.016-.531.031a7.879,7.879,0,0,0-1.076.165.013.013,0,0,0,0,.026c.358-.041.717-.074,1.076-.087h.8a.328.328,0,0,0,.147-.013l.468.611q.185.247.366.494c.12.165.234.354.369.512C422.129,300.015,422.147,300,422.14,299.987Z" transform="translate(-404.891 -290.439)" fill="#263238"/>
      <path id="Path_21289" data-name="Path 21289" d="M418.822,303.56a3.937,3.937,0,0,0-.623-.03c-.208,0-.417,0-.625.013a.013.013,0,0,0,0,.026c.211-.016.422-.02.633-.016s.409.023.611.016C418.828,303.569,418.828,303.561,418.822,303.56Z" transform="translate(-404.718 -297.421)" fill="#263238"/>
      <path id="Path_21290" data-name="Path 21290" d="M435.825,303.488c.023-.2.048-.4.091-.595a.013.013,0,0,0-.026,0c-.03.2-.068.391-.1.587-.015.1-.028.2-.041.293a1.442,1.442,0,0,0-.023.279.018.018,0,0,0,.035,0,1.749,1.749,0,0,0,.03-.279C435.8,303.677,435.813,303.582,435.825,303.488Z" transform="translate(-419.892 -296.88)" fill="#263238"/>
      <path id="Path_21291" data-name="Path 21291" d="M432.956,293.147c-.051.194-.1.391-.137.587-.018.1-.035.2-.048.3a1.256,1.256,0,0,0-.02.295.008.008,0,0,0,.008.008.008.008,0,0,0,.008-.008,1.6,1.6,0,0,0,.044-.28c.013-.1.028-.193.045-.29.036-.2.073-.4.123-.6C432.983,293.14,432.956,293.131,432.956,293.147Z" transform="translate(-417.404 -288.744)" fill="#263238"/>
      <path id="Path_21292" data-name="Path 21292" d="M373.466,328.982c-.033-.366-.069-.733-.107-1.1q-.117-1.088-.262-2.173c-.1-.72-.19-1.443-.307-2.162a5.246,5.246,0,0,0-.222-.989.931.931,0,0,0-.544-.615c-.685-.236-1.153.475-1.424.977-.008.015.013.026.023.013.165-.239.623-.906,1.144-.875.349.02.629.269.8,1.14.419,2.173.8,6.591.84,6.873.023.153.13.147.132-.018C373.53,329.7,373.489,329.341,373.466,328.982Z" transform="translate(-365.494 -312.764)" fill="#263238"/>
      <path id="Path_21293" data-name="Path 21293" d="M356.437,319.656s.6-2.116-.725-1.058c-2.2,1.761-2.282,5.586-2.282,5.586s3.918-2.276,4.4-3.777C358.561,318.177,356.437,319.656,356.437,319.656Z" transform="translate(-351.154 -309.761)" fill="#e31c79"/>
      <path id="Path_21294" data-name="Path 21294" d="M358.414,326.2c-.306.063-.62.1-.929.148l-.442.063c-.1.013-.2.023-.3.035.292-.4.587-.8.867-1.213a.016.016,0,0,0-.026-.02,8.972,8.972,0,0,0-.659.756l-.175-.494c-.066-.189-.138-.377-.186-.573,0-.016-.03,0-.025.008.053.193.091.392.143.587s.107.372.173.555c-.143.186-.282.377-.415.57-.068-.191-.152-.376-.209-.57,0-.016-.031-.008-.026,0,.071.216.109.438.175.659-.091.132-.18.264-.265.4-.165.246-.308.494-.453.745a.058.058,0,0,0-.035.059c-.247.428-.483.862-.715,1.3a.013.013,0,1,0,.023.013c.232-.433.494-.855.76-1.269h0a.512.512,0,0,1,.129-.025l.135-.03c.1-.021.2-.048.3-.072.2-.049.4-.1.6-.132.016,0,.008-.028,0-.025-.237.044-.475.072-.715.1-.114.013-.226.028-.338.046h-.017q.209-.32.428-.636c.142-.206.288-.41.435-.615.137-.018.27-.054.405-.079l.455-.089c.3-.061.606-.129.911-.178C358.439,326.232,358.431,326.2,358.414,326.2Z" transform="translate(-352.39 -315.269)" fill="#263238"/>
      <path id="Path_21295" data-name="Path 21295" d="M361.037,331.4c-.018-.056-.035-.112-.053-.165a3.3,3.3,0,0,1-.091-.356c0-.016-.028-.008-.025,0,.026.12.054.239.081.358a2.136,2.136,0,0,0,.1.351.025.025,0,0,0,.046-.013C361.079,331.521,361.055,331.462,361.037,331.4Z" transform="translate(-357.367 -320.26)" fill="#263238"/>
      <path id="Path_21296" data-name="Path 21296" d="M373.118,329.85c-.178.026-.358.04-.539.056s-.358.04-.537.068c-.01,0-.01.016,0,.015.18-.012.359-.026.539-.049s.358-.049.539-.063C373.137,329.874,373.135,329.848,373.118,329.85Z" transform="translate(-366.694 -319.406)" fill="#263238"/>
      <path id="Path_21297" data-name="Path 21297" d="M370.507,290.58c-.071-1.557-.165-3.113-.33-4.663-.077-.773-.165-1.544-.274-2.307a16.216,16.216,0,0,0-.447-2.239,4.31,4.31,0,0,0-.745-1.579,1.7,1.7,0,0,0-1.506-.659,3.053,3.053,0,0,0-1.705.98c-.532.524-1.02,1.1-1.513,1.648-.125.142-.249.285-.372.428-.01.013.008.031.02.018.483-.554.989-1.092,1.508-1.607a4.335,4.335,0,0,1,1.648-1.193,1.723,1.723,0,0,1,.962-.023,1.527,1.527,0,0,1,.659.417,3.43,3.43,0,0,1,.742,1.44,24.934,24.934,0,0,1,.723,4.411c.155,1.478.265,3.007.341,4.517s.135,3.034.282,4.546c.018.186.041.372.066.559.015.124.209.125.2,0C370.648,293.709,370.576,292.145,370.507,290.58Z" transform="translate(-359.659 -277.039)" fill="#263238"/>
      <path id="Path_21298" data-name="Path 21298" d="M345.379,274.855s.89-1.648-.165-2.175-4.568,3.4-5.594,9.139c0,0,5.68-2.513,7.61-5.018S346.974,273.746,345.379,274.855Z" transform="translate(-339.62 -271.617)" fill="#e31c79"/>
      <path id="Path_21299" data-name="Path 21299" d="M350.669,285.9c-.638,0-1.275-.048-1.913-.044l.359-.41a5.761,5.761,0,0,0,.494-.58c.008-.013-.01-.031-.023-.021a4.339,4.339,0,0,0-.483.484c-.165.165-.32.339-.478.511-.244.265-.483.532-.722.8v-1.056c0-.438,0-.88.033-1.318,0-.016-.025-.016-.026,0-.03.442-.076.88-.1,1.318-.01.218-.015.433-.018.651v.517c-.036.043-.076.084-.112.125-.509.583-.989,1.185-1.467,1.8a.429.429,0,0,0-.008-.1c0-.068-.015-.135-.021-.2-.016-.147-.036-.292-.059-.438s-.041-.274-.064-.41-.064-.308-.076-.463a.013.013,0,0,0-.02-.015.013.013,0,0,0,0,.015,4.47,4.47,0,0,1,.053.468l.039.422c.012.14.025.28.04.422l.02.2a.7.7,0,0,0,.013.1.165.165,0,0,0,.026.081l-.242.316c-.33.427-.639.858-.956,1.289-.01.013.01.031.02.018.3-.39.608-.774.919-1.153.234.01.473-.008.707-.012s.494,0,.738,0a.013.013,0,1,0,0-.026c-.247,0-.494.008-.74.01s-.453-.01-.677,0c.273-.33.552-.659.824-1l.323-.363a1.493,1.493,0,0,0,.285.01h.33c.209,0,.419,0,.629-.008.433,0,.867-.022,1.3-.023a.013.013,0,0,0,.015,0,.013.013,0,0,0,0-.016.013.013,0,0,0-.015,0c-.435,0-.868-.025-1.3-.036-.211,0-.42-.012-.631-.015h-.524l.717-.849a.039.039,0,0,0,.013-.015c.232-.275.465-.549.7-.824.033-.036.066-.073.1-.11.659.02,1.318-.023,1.977-.01C350.687,285.927,350.687,285.9,350.669,285.9Z" transform="translate(-344.075 -281.324)" fill="#263238"/>
      <path id="Path_21300" data-name="Path 21300" d="M376.816,301.09h-.155a.012.012,0,1,0,0,.023h.153a.013.013,0,0,0,0-.023Z" transform="translate(-370.548 -295.385)" fill="#263238"/>
      <path id="Path_21301" data-name="Path 21301" d="M369.423,300.972c-.2,0-.409,0-.613-.013l-.3,0a1.175,1.175,0,0,0-.285,0,.01.01,0,0,0,0,.02,1.116,1.116,0,0,0,.287.02h.919C369.441,301,369.441,300.972,369.423,300.972Z" transform="translate(-363.499 -295.266)" fill="#263238"/>
      <path id="Path_21302" data-name="Path 21302" d="M358.367,312.164a8.251,8.251,0,0,0-1.257-.114v.008c.419.04.835.063,1.251.13C358.377,312.192,358.384,312.165,358.367,312.164Z" transform="translate(-354.228 -304.539)" fill="#263238"/>
      <path id="Path_21303" data-name="Path 21303" d="M353.576,297.428a.827.827,0,0,0-.013-.109c-.01-.082-.023-.165-.036-.246-.025-.157-.051-.311-.081-.468,0-.013-.028-.01-.026,0,.02.165.038.321.053.483l.02.237a.677.677,0,0,0,.031.224.031.031,0,0,0,.056-.008A.321.321,0,0,0,353.576,297.428Z" transform="translate(-351.146 -291.633)" fill="#263238"/>
      <path id="Path_21304" data-name="Path 21304" d="M393.709,268.99c-.2-.379-.463-.878-.971-.847-.419.026-.608.453-.7.807a16.949,16.949,0,0,0-.349,3.366c-.115,2.368-.218,4.737-.232,7.109V281.4c0,.671,0,1.345.046,2.014a.049.049,0,1,0,.1,0c0-.573-.017-1.153-.018-1.72s0-1.119.01-1.679q.028-1.7.091-3.4c.043-1.125.092-2.251.14-3.376.023-.562.048-1.125.073-1.687s.048-1.089.11-1.631c.035-.3.079-.608.143-.906a1.254,1.254,0,0,1,.262-.608.57.57,0,0,1,.74-.053,1.561,1.561,0,0,1,.526.659.019.019,0,1,0,.028-.026Z" transform="translate(-382.918 -267.866)" fill="#263238"/>
      <path id="Path_21305" data-name="Path 21305" d="M398.8,267.411s-.417-1.473.506-.737c1.536,1.226,1.59,3.894,1.59,3.894s-2.73-1.585-3.07-2.636C397.32,266.38,398.8,267.411,398.8,267.411Z" transform="translate(-388.147 -266.468)" fill="#e31c79"/>
      <path id="Path_21306" data-name="Path 21306" d="M403.777,274.841c-.025-.041-.051-.081-.077-.122a.817.817,0,0,0,0-.125v-.19a3.546,3.546,0,0,1,.013-.374.013.013,0,0,0-.026,0c0,.122-.011.246-.015.367v.262c-.107-.165-.217-.33-.33-.494-.033-.048-.068-.094-.1-.14a2.616,2.616,0,0,1-.008-.481c0-.165,0-.343.01-.514a.013.013,0,0,0-.026,0c0,.178-.013.356-.023.534a3.26,3.26,0,0,0-.01.381c-.264-.358-.544-.7-.824-1.048a.013.013,0,0,0-.02.016c.175.222.343.45.508.681-.321-.076-.648-.119-.974-.165-.016,0-.023.023,0,.026.346.053.686.138,1.027.214h0c.13.185.26.369.387.555l.155.227h-.013l-.107-.015-.227-.02c-.157-.013-.315-.021-.473-.03-.016,0-.015.026,0,.026a4.347,4.347,0,0,1,.463.031l.246.03.105.013h.031c.087.128.176.257.262.386.155.229.293.473.456.692a.013.013,0,0,0,.021-.013A6.9,6.9,0,0,0,403.777,274.841Z" transform="translate(-391.603 -271.833)" fill="#263238"/>
      <path id="Path_21307" data-name="Path 21307" d="M409.214,271.824v-.173a2.635,2.635,0,0,1,.015-.361.013.013,0,1,0-.025,0c0,.12-.013.239-.02.358v.262a.3.3,0,0,0,0,.086.012.012,0,1,0,.023,0,.255.255,0,0,0,0-.079Z" transform="translate(-397.719 -270.481)" fill="#263238"/>
      <path id="Path_21308" data-name="Path 21308" d="M404.031,277.986c-.1-.018-.206-.023-.308-.031s-.224-.02-.33-.035a.013.013,0,1,0,0,.026c.216.013.43.053.646.059C404.041,278.007,404.042,277.987,404.031,277.986Z" transform="translate(-392.874 -276.033)" fill="#263238"/>
      <path id="Path_21309" data-name="Path 21309" d="M412.5,278.3c.008.012,0,.044,0,.058v.254a.229.229,0,0,0,0,.089h.01a.093.093,0,0,0,0-.043.454.454,0,0,1,0-.048v-.31C412.512,278.287,412.486,278.274,412.5,278.3Z" transform="translate(-400.488 -276.338)" fill="#263238"/>
      <path id="Path_21310" data-name="Path 21310" d="M381.695,315.516c-.573-.43-1.089-1.05-1.862-1.081a1.493,1.493,0,0,0-1.34.989,5.712,5.712,0,0,0-.311.882q-.173.6-.33,1.214-.3,1.2-.511,2.422c-.077.453-.15.908-.208,1.364a11.692,11.692,0,0,0-.133,1.4.072.072,0,0,0,.143.017c.078-.382.11-.776.165-1.162s.115-.776.18-1.162q.2-1.153.458-2.307c.165-.723.33-1.457.559-2.16a1.82,1.82,0,0,1,.98-1.274c.824-.275,1.58.425,2.187.882C381.69,315.546,381.708,315.526,381.695,315.516Z" transform="translate(-370.84 -306.53)" fill="#263238"/>
      <path id="Path_21311" data-name="Path 21311" d="M391.836,309.115s-.531-1.511.236-1.813c1.153-.443,4.149,2.938,3.561,8.119a29.519,29.519,0,0,1-4.032-2.716c-1.714-1.439-2.142-3.315-1.4-3.8S391.836,309.115,391.836,309.115Z" transform="translate(-381.575 -300.541)" fill="#e31c79"/>
      <path id="Path_21312" data-name="Path 21312" d="M402.988,322.4a3.964,3.964,0,0,0-.279-.522c-.1-.178-.2-.354-.3-.529-.2-.341-.4-.682-.6-1.022l-.1-.165a.4.4,0,0,1,.011-.061l.035-.15c.026-.112.046-.226.066-.339.043-.221.081-.445.14-.659,0-.015-.021-.02-.025,0-.048.221-.119.44-.183.659-.033.107-.068.212-.1.321l-.03.11c-.245-.4-.494-.806-.768-1.195a.549.549,0,0,0,.028-.165c.008-.076.017-.152.026-.227.02-.165.039-.341.064-.511.049-.33.1-.659.181-.989,0-.016-.021-.021-.025,0-.084.33-.173.659-.236.989-.03.165-.059.33-.081.494-.01.082-.02.165-.028.247a.2.2,0,0,1-.01.074c-.082-.117-.165-.236-.252-.349-.265-.349-.54-.689-.824-1.028-.01-.013-.033,0-.021.015a18.382,18.382,0,0,1,1.305,1.9l.226.367-.076-.01c-.1-.013-.194-.018-.292-.028l-.587-.051c-.391-.031-.783-.054-1.172-.1-.017,0-.022.023,0,.025.4.046.788.109,1.181.165.194.028.387.054.582.079a2.311,2.311,0,0,0,.447.044c.153.251.308.494.461.748h-1.417c-.018,0-.015.025,0,.025.255,0,.509.016.765.03l.363.021.181.013a.363.363,0,0,0,.165,0l.392.636c.12.2.242.391.366.585a4.772,4.772,0,0,0,.394.59C402.973,322.425,402.995,322.417,402.988,322.4Z" transform="translate(-389.277 -308.626)" fill="#263238"/>
      <path id="Path_21313" data-name="Path 21313" d="M414.852,324.587a3.643,3.643,0,0,1-.1.494c-.043.165-.091.33-.145.494a.016.016,0,1,0,.031.01c.051-.165.1-.33.137-.494s.066-.33.107-.5a.013.013,0,0,0-.026,0Z" transform="translate(-402.247 -315)" fill="#263238"/>
      <path id="Path_21314" data-name="Path 21314" d="M397.589,329.662a.2.2,0,0,0-.127-.048l-.219-.03c-.135-.018-.272-.033-.407-.049-.283-.033-.565-.061-.849-.1-.016,0-.021.023,0,.025.267.033.532.074.8.109l.391.051.19.02a.66.66,0,0,1,.214.038.012.012,0,0,0,.008-.02Z" transform="translate(-386.687 -319.063)" fill="#263238"/>
      <path id="Path_21315" data-name="Path 21315" d="M411.827,344.52c-.134-.011-.269-.016-.4-.02h-.3a.657.657,0,0,1-.127,0c-.018,0-.02.028,0,.025a.567.567,0,0,1,.119,0h.105l.2.013c.134.008.269.016.4.016C411.842,344.548,411.843,344.52,411.827,344.52Z" transform="translate(-399.224 -331.642)" fill="#263238"/>
      <path id="Path_21316" data-name="Path 21316" d="M420.655,337.609l.045-.227c.026-.15.054-.3.082-.448a.013.013,0,0,0-.026,0l-.1.437c-.016.072-.033.145-.048.217a.457.457,0,0,1-.021.1.292.292,0,0,0-.012.107.016.016,0,0,0,.03.008A.536.536,0,0,0,420.655,337.609Z" transform="translate(-407.235 -325.311)" fill="#263238"/>
      <path id="Path_21317" data-name="Path 21317" d="M373.4,361.1l.162,1.837.549,6.2h4.856l.685-6.2.2-1.837Z" transform="translate(-367.834 -345.506)" fill="#37474f"/>
      <path id="Path_21318" data-name="Path 21318" d="M373.4,361.1l.162,1.837h6.09l.2-1.837Z" transform="translate(-367.834 -345.506)" fill="#263238"/>
      <rect id="Rectangle_2699" data-name="Rectangle 2699" width="7.417" height="1.49" transform="translate(12.502 16.584) rotate(180)" fill="#37474f"/>
    </g>
  </g>
</svg>
