<svg width="45" height="45" viewBox="0 0 45 45" fill="none" xmlns="http://www.w3.org/2000/svg">
<rect width="45" height="45" rx="8" fill="#E3FEFF"/>
<path d="M22.5 45C34.9264 45 45 34.9264 45 22.5C45 10.0736 34.9264 0 22.5 0C10.0736 0 0 10.0736 0 22.5C0 34.9264 10.0736 45 22.5 45Z" fill="#E3FEFF"/>
<circle cx="14.0623" cy="11.2499" r="2.8125" fill="#005BD4"/>
<ellipse opacity="0.4" cx="14.0623" cy="16.8749" rx="4.21875" ry="2.8125" fill="#005BD4"/>
<circle cx="30.9373" cy="28.1249" r="2.8125" fill="#005BD4"/>
<path fill-rule="evenodd" clip-rule="evenodd" d="M21.4451 8.43744C21.4451 7.85495 21.9173 7.38275 22.4998 7.38275C30.8487 7.38275 37.6169 14.1509 37.6169 22.4999C37.6169 23.0824 37.1447 23.5546 36.5623 23.5546C35.9798 23.5546 35.5076 23.0824 35.5076 22.4999C35.5076 15.3159 29.6838 9.49213 22.4998 9.49213C21.9173 9.49213 21.4451 9.01993 21.4451 8.43744ZM8.43726 21.4453C9.01974 21.4453 9.49194 21.9175 9.49194 22.4999C9.49194 29.684 15.3157 35.5077 22.4998 35.5077C23.0822 35.5077 23.5544 35.9799 23.5544 36.5624C23.5544 37.1449 23.0822 37.6171 22.4998 37.6171C14.1508 37.6171 7.38257 30.8489 7.38257 22.4999C7.38257 21.9175 7.85477 21.4453 8.43726 21.4453Z" fill="#005BD4"/>
<ellipse opacity="0.4" cx="30.9373" cy="33.7499" rx="4.21875" ry="2.8125" fill="#005BD4"/>
</svg>
